<?xml version="1.0" standalone="no"?><!DOCTYPE svg PUBLIC "-//W3C//DTD SVG 1.1//EN" "http://www.w3.org/Graphics/SVG/1.1/DTD/svg11.dtd"><svg class="icon" viewBox="0 0 1024 1024" version="1.1" xmlns="http://www.w3.org/2000/svg" xmlns:xlink="http://www.w3.org/1999/xlink" width="200" height="200"><defs><style type="text/css"></style></defs><path d="M262.944 491.872c-0.512 0.993-1.343 1.823-1.792 2.849-8.8 18.304-5.92 40.703 9.664 55.424L624.064 884.256c19.265 18.209 49.631 17.345 67.872-1.889 18.209-19.264 17.376-49.63-1.88900001-67.872l-316.95999999-299.83899999L688.8 210.368c19.072-18.399 19.648-48.767 1.247-67.87200001-9.40700001-9.791-21.984-14.689-34.56-14.68899999-11.99999999 0-24 4.48-33.312 13.44l-350.048 337.376c-0.673 0.673-0.92700001 1.6-1.6 2.303-0.51299999 0.48-1.056 0.833-1.56699999 1.344-2.72 2.85-4.16 6.33900001-6.01600001 9.602z"></path></svg>